<?xml version="1.0" encoding="utf-8"?>
<!-- Generator: Adobe Illustrator 19.0.0, SVG Export Plug-In . SVG Version: 6.00 Build 0)  -->
<svg version="1.1" xmlns="http://www.w3.org/2000/svg" xmlns:xlink="http://www.w3.org/1999/xlink" x="0px" y="0px"
	 viewBox="0 0 1185.1 1117" style="enable-background:new 0 0 1185.1 1117;" xml:space="preserve">
<style type="text/css">
	.st0{fill:#FFFFFF;}
	.st1{font-family:'MicrosoftYaHei';}
	.st2{font-size:90px;}
	.st3{display:none;}
	.st4{font-family:'BodoniMT';}
	.st5{font-size:57.6px;}
	.st6{display:inline;}
	.st7{fill:#33739C;}
	.st8{display:inline;fill:none;}
	.st9{display:inline;fill:#33739C;}
	.st10{fill:#2687B0;}
	.st11{fill:#569CD4;}
	.st12{font-family:'zhongqi-Wangqinghua';}
	.st13{font-size:126px;}
	.st14{font-family:'RiWenMaoBiXingShu';}
	.st15{font-size:102.8388px;}
</style>
<g id="图层_1">
	<text transform="matrix(0.9427 0 0 1 561.0906 530.3596)" class="st0 st1 st2">腾海·家教管家</text>
	<text transform="matrix(1 0 0 1 630.8976 567.8643)" class="st3 st4 st5">TengHai Education</text>
	<g id="图层_3">
		<g>
			<path class="st0" d="M125.4,521.9c24-76.7,114.3-84.6,124.5-84.6c30.3,0,46.8,8.1,56.6,21.6c10.1,17-26.6,39.2-28.4,27.1
				c-9.6-2.1,0.7-12.3,7.6-12.6c0.5,4.3,3.2,5.6,0.5,9.8c18.9-2.1,8.4-32.5-14.1-32.5c-30.7,3.3-24,34.7-51.9,32.8
				c-4.9,21.1,17.6,40.3,48.3,52.1c6-25.9,38.5-41.8,75.2-51.8c17.5-4.3,17.5-4.3,40.1-8.7c25.6-3,31.6,8,31.6,8
				c14.7,14.5-13.3,47.9-26.7,42.4c-10.9,1.1,3.5-13.7,0.8-9.8c0,0.1,3.8,2.4,1.6,6.9c1.1,2,27.7-21.8,1.8-30.1
				c-16-0.4-33,8.1-39.9,18.9c-18,20.3,0.6,39.1,15.8,46.8c34.3,16.4,79.6,23.1,128.8,17.5c37.2-8.2,20-0.9,49.5-14.5
				c-17.1,16.9-3.5,9.9-45.5,27.1c-89.2,7.9-174.4-16.7-189.9-61.5c-15,10.5-23.2,25.7-6,37.1l1.6,2.3l1.2,1.8
				c-43.3,0-76.5-17.8-103.9-33.9c-19.4-10.4-24-25.3-28.1-39.3c-31.6,47.8-19.1,82.6,20.2,111.8
				C193.8,607.3,112.7,584.8,125.4,521.9z"/>
		</g>
		<g>
			<path class="st0" d="M174.6,579c-13.6-21.2-15.4-46.2-1.3-67.5c30.8,32.1,86.1,66.7,150.6,65.6c-3.9-4.6-7.8-9.2-11.8-13.7
				l-2.2-2.3l-1.6-2.3c0.3-7.8,0.4-15.6,0.9-23.4c10.5,12.5,15.9,20.1,34.5,33.6c50.8,23.4,134.2,45.4,203.6,4.8
				C528.8,641.8,207.6,641.8,174.6,579z"/>
		</g>
		<g>
			<g>
				<path class="st0" d="M488.3,501.4c-1.5,1.7-2.9,3.5-4.4,5.2c-0.8-0.2-2.4-0.6-3.1-0.8c3.1-4-3.2-5.5-5.4-8.5
					c-3.8,1.3-6.4-0.9-9.2-1.9c-4.7-2.2-9.9-4.3-16.3-4.1c-2.1,13.3,8.1,25.9,23.1,34.7c12.4,7.7,28.4,14.9,29.7,26.9
					c-5.3-7-9.4-14.8-19.8-19.7c-9.5-0.9-19.1,2.6-26,6.6c0.6-5.6,6-10.3,12.8-14c-8.9-6.2-17.3-13.1-19.9-21.5
					c-1-4.6-1.2-9.4-1.2-14.1c10.3-0.2,18.7,3.5,28.2,5.1C480.9,497.1,483.7,499.9,488.3,501.4z M459.7,537.2
					c4.6-2.3,9.2-4.6,13.5-7.2c-0.6-1-1.9-2.8-2.5-3.8C465.8,529.4,461.9,533.1,459.7,537.2z"/>
			</g>
			<path class="st0" d="M478,504.3c-2.7-1.3-6-1.8-9.4-2.2c-3.6,1.9-7.5,3.9-8.6,6.8c3.5-1.5,6.8-3.2,10.2-4.8
				C472.1,504.2,476,504.2,478,504.3z"/>
			<path class="st0" d="M539.2,521.5c-4.6-2.8-9.2-6-15.7-7.2c-5.4-0.9-11.1-0.7-16.7-0.9c-4.6-3.8-9.9-7.2-15.2-10.6
				c-1.5,2.2-1.8,4.6-2.2,6.9c1.1-0.4,3.2-1.1,4.3-1.5c1.2,4.1,7.2,7.9,14.6,7.1c8.3-0.7,16.5,0.3,22.9,3.5
				c-6.6,0.4-14.3-0.1-19.4,3.2c-1,5.3,0.6,10.6,0.9,15.9c0.8,0.1,2.2,0.2,3,0.3c1.1-5-0.8-10,0.6-15
				C522.3,519.3,531.6,521.2,539.2,521.5L539.2,521.5z"/>
			<g>
				<path class="st0" d="M492.1,519.4c-0.3-1.1-1-3.4-1.3-4.5c2.8,1,5.5,2.1,8.2,3.1c3.7,3.6,7.4,7.4,9.2,11.6
					c1.9,4.2,1.4,9.2,7.2,12.3c-1.2,11.3-4.9,23.4-18.3,32.2c-4.4-1.9-9.2-3.7-12.9-6.2c-2.7-2.6-2.4-5.9-2.6-9
					c4.2,2.7,5.6,8.8,13.1,8.5c2.8-1.8,4.8-4.1,8.4-5.5c-0.1-0.7-0.2-2-0.2-2.7c4-5.1,3.2-10.8,3.7-16.1c0.8-3.7-3.6-6.2-6.4-9
					c-1.8-6-6.2-11.6-13-16c-2.7-0.2-5.5-0.2-8.2-0.1c-0.8-1.6-1.7-3.2-2.5-4.8c2.4-0.5,4.8-1,7.2-1.6c2.1,1.2,3.7,2.6,5.1,4.1
					C489.9,516.8,491.1,518.1,492.1,519.4z M494.8,520.7c-1.4,1.4,1.2,4,3.9,3.4C500,522.7,497.6,520.1,494.8,520.7z"/>
			</g>
		</g>
		<g>
			<path class="st0" d="M366.5,400.5c7.8-12.9,10.3,6.6,16.7,12.5c-7.4,1.1-10.9-15.2-16.4-8.1c-0.2,4.8,4.3,10.1-2,11.1
				C364.7,410.7,363,404.3,366.5,400.5z"/>
			<path class="st0" d="M355,422.6c1.5-1.8,3.2-3.2,5.3-4.2c0.6,3.8-3.7,5.3-4.6,8.6c5.3,10.1-9.4,16.1-2,25.8
				c2.3,4.5-3.4,5.8-5.2,8C340.5,446.8,350.1,433.2,355,422.6z"/>
			<path class="st0" d="M363.8,420.1c7.6-6,19.9-7.2,29.7-0.8c-4.6,2.1-10.2-2.2-15.2-1.3c-9.6-1.7-13.3,8.3-18.7,13.7
				C358.8,426.7,360.6,422.7,363.8,420.1z"/>
			<path class="st0" d="M368,431.8c3.8-2.2,11.5-6.7,15.3-9c3.6,3.7-2.5,5.4,1.2,8.6c4,0.5,9.7-2.2,12.1,3.7
				c-15.2,3.6-32.2,9.8-37.4,26.9c-1.7,4.4-3.8,8.7-8.2,10.2c-3.8-3.4,0.8-14.8,4.2-7.7c4.8-8.5,4.2-22.5,15.9-23.9
				c2.1-1,6.9,0,6.1-4.1c-0.7-5.1,1.6-16-8.1-3.2L368,431.8z"/>
			<path class="st0" d="M399.9,420.2c11,2.8,19.6,13.8,28.9,21.3c6.4,6.9,14.7-8,18.6,3.8c-7.9,4.2-11.1,13.5-16.5,20.4
				c-4.6-6.9,1.4-14.1-3.9-20.5c-8.1-6.4-17.7-6.5-26.4-9.7c3-1,6.1-1.4,8.9-2.8C406.5,428.4,402.4,424.9,399.9,420.2z"/>
		</g>
		<g class="st3">
			<g class="st6">
				<path class="st7" d="M565.9,561.5c3.2,2.4-0.7,5,0.2,7.2c-0.2,0.5,3.3-8.1,4-5.1c5.2-2.9,4.2-13.5,8.4-15.1
					c-0.1,0.9-0.4,2.6-0.5,3.4c0.6,0.5-0.4,2.5,0.2,3c-2.9,5.4-3.4,9.8-5.7,15.4c0.8,0.3,2.4,0.8,3.3,1c-3.7,2.1-0.2,6.7-5.3,8.1
					c-2.9,1.4-1.1,0.6-2.5,2.6c1.3,1.1,2.3-1.7,3.6-0.7c-0.6-0.1-1.3,1.4-1.9,1.3l-2.4-0.2c-1.5,1.6-2.3-2.9-4.2-1.4
					c0.1-1.9-0.3,2.3,0.1,0.5c-5.3-2.2-11.3-0.4-16.9-2.4c-0.7-1.3-1.3-2.6-2-3.9c1.4,1.1,2.8,2.3,4.1,3.4c1.2,0.5,3.5,1.6,4.7,2.1
					c0.7-0.3,2.1-0.8,2.8-1c-8.8-3.8-21.5-7.9-23.6-13.5c3.9,2.3,7.2,4.8,10.4,7.3c-0.4-0.7-1.2-2-1.6-2.7l2.1,0.1
					c-6.1-4.4-11.6-9.2-12.6-13.7c4.8,3.8,5.6,9,15.1,11.2c-1.1-3.6-6.6-7.2-9.3-10.9c3.5,2.4,6.8,4.9,10.3,7.3
					c1.8-2.4-2.6-5.8-4.8-8.8L565.9,561.5z M563.5,546.3 M543.9,556.1c3.3,1.1,7.9,4.9,8.6,6.6c3,8.3,1.9,3,5.3,8.9
					c0.7,1.4,1.9,3.3-0.6,3.8c-0.1,0.6-0.1,1.3-0.5,1.9c-1.1-0.2-3.2-0.6-4.3-0.9c2.9,2,5.8,4,7.6,6.3c3.7,1.1,6.5-2.8,8.2-0.8
					c0.7-1.7-0.9,1.9,1.4,0.9c2.2-0.7,1-2.6,1.2-4c-0.4-0.1-1.2-0.3-1.6-0.4c0.3-2.8-1.6-5.8-2.8-8.8c-1.9-1.6-0.5-2.9,0-4.1
					c-0.2-0.4-0.6-1.2-0.9-1.6L543.9,556.1z"/>
				<path class="st7" d="M575.5,563.9"/>
			</g>
			<line class="st8" x1="532.9" y1="547.8" x2="531.1" y2="547.8"/>
			<path class="st9" d="M527,542.6"/>
			<path class="st9" d="M547.8,576c-1.5-2.9-3-5.9-4.5-8.9c1.6-1.3,3.3-2.6,5-3.9c0.2,0.8,0.5,3,0.7,3.8
				C548.2,570.1,548,572.7,547.8,576z"/>
			<path class="st9" d="M553.7,568.9c-0.6-7.7-0.8-15.6,1.9-22.7C559.4,554,556.1,561.8,553.7,568.9z"/>
			<path class="st9" d="M543.1,578.6c2.5-2.2,7.2,4.1,5.8,6.2C546,584.3,543.2,581.3,543.1,578.6z"/>
			<path class="st9" d="M557.3,575.4c-2.6-5.6,0.3-10.6,3.8-14.7C560.9,565.9,559.4,570.8,557.3,575.4z"/>
			<path class="st9" d="M552,582.9"/>
		</g>
	</g>
</g>
<g id="图层_2" class="st3">
	<g class="st6">
		<path class="st7" d="M88.3,778.7c38-121.6,181.2-134.1,197.5-134.1c48,0,74.2,12.8,89.7,34.2c16,27-42.2,62.2-45,43
			c-15.2-3.3,1.1-19.5,12-19.9c0.7,6.9,5,8.8,0.7,15.6c29.9-3.3,13.4-51.5-22.3-51.6c-48.6,5.2-38,55-82.2,52
			c-7.7,33.5,27.9,63.9,76.6,82.6c9.5-41.1,61.1-66.3,119.2-82.1c27.7-6.9,27.7-6.9,63.6-13.8c40.5-4.8,50.1,12.7,50.1,12.7
			c23.3,23-21.1,76-42.3,67.3c-17.3,1.7,5.6-21.7,1.2-15.6c0,0.1,6,3.8,2.5,11c1.8,3.3,43.9-34.6,2.8-47.7
			c-25.4-0.6-52.4,12.8-63.2,29.9c-28.5,32.3,1,62,25,74.2c54.3,26.1,126.2,36.6,204.3,27.7c59-13,31.7-1.5,78.5-23
			c-27.2,26.8-5.6,15.6-72.1,42.9c-141.5,12.6-276.6-26.4-301.2-97.6c-23.7,16.7-36.7,40.8-9.6,58.8l2.6,3.7l2,2.8
			c-68.7,0-121.3-28.2-164.8-53.8c-30.7-16.5-38.1-40.1-44.5-62.3c-50.2,75.8-30.4,131,32,177.3C196.8,914,68.2,878.5,88.3,778.7z"
			/>
	</g>
	<g class="st6">
		<path class="st7" d="M166.3,869.3c-21.6-33.6-24.5-73.3-2.1-107c48.8,50.9,136.5,105.7,238.8,104c-6.1-7.3-12.4-14.6-18.7-21.8
			l-3.6-3.7l-2.6-3.7c0.5-12.4,0.6-24.8,1.4-37.2c16.6,19.8,25.3,31.8,54.7,53.3c80.6,37.1,212.8,72,322.9,7.6
			C728,968.8,218.6,968.8,166.3,869.3z"/>
	</g>
	<g class="st6">
		<g>
			<path class="st10" d="M663.9,746.1c-2.4,2.7-4.7,5.5-7,8.2c-1.3-0.3-3.8-0.9-5-1.2c5-6.3-5-8.7-8.5-13.4
				c-6,2.1-10.2-1.4-14.6-3.1c-7.5-3.5-15.7-6.9-25.8-6.5c-3.4,21.1,12.8,41,36.7,55c19.7,12.2,45.1,23.7,47,42.6
				c-8.4-11-14.9-23.5-31.4-31.2c-15.1-1.4-30.3,4.1-41.3,10.5c1-8.9,9.5-16.4,20.3-22.2c-14.1-9.8-27.5-20.8-31.5-34.1
				c-1.6-7.4-1.9-14.9-1.9-22.3c16.3-0.3,29.6,5.6,44.7,8.1C652.1,739.3,656.5,743.8,663.9,746.1z M618.5,803
				c7.3-3.7,14.6-7.4,21.4-11.4c-1-1.5-3-4.5-4-6C628.1,790.6,622,796.4,618.5,803z"/>
		</g>
		<path class="st10" d="M647.4,750.7c-4.3-2-9.6-2.8-14.8-3.4c-5.7,3-12,6.1-13.7,10.8c5.5-2.4,10.8-5.1,16.1-7.6
			C638.1,750.6,644.3,750.7,647.4,750.7z"/>
		<path class="st10" d="M744.4,778c-7.4-4.4-14.6-9.5-24.9-11.5c-8.5-1.5-17.6-1.1-26.4-1.4c-7.2-6-15.6-11.5-24.1-16.8
			c-2.4,3.5-2.9,7.3-3.5,11c1.7-0.6,5.1-1.7,6.8-2.3c2,6.5,11.4,12.6,23.1,11.3c13.1-1.2,26.2,0.5,36.2,5.6
			c-10.5,0.6-22.6-0.1-30.8,5.1c-1.5,8.4,1,16.8,1.4,25.1c1.2,0.1,3.6,0.4,4.7,0.5c1.7-7.9-1.3-15.9,0.9-23.8
			C717.8,774.6,732.5,777.6,744.4,778"/>
		<g>
			<path class="st10" d="M669.8,774.6c-0.5-1.8-1.6-5.4-2.1-7.2c4.4,1.6,8.7,3.3,13,5c5.9,5.8,11.7,11.7,14.5,18.4
				c3.1,6.7,2.2,14.6,11.4,19.5c-2,17.9-7.8,37-29,51c-7-3.1-14.6-5.8-20.4-9.8c-4.3-4.2-3.8-9.4-4.1-14.2
				c6.7,4.3,8.9,13.9,20.8,13.5c4.4-2.9,7.7-6.5,13.3-8.7c-0.1-1.1-0.3-3.2-0.4-4.3c6.3-8,5.1-17.1,5.8-25.6
				c1.3-5.8-5.8-9.8-10.2-14.3c-2.8-9.5-9.8-18.4-20.6-25.4c-4.3-0.3-8.7-0.4-13-0.2c-1.3-2.5-2.7-5.1-4-7.6
				c3.8-0.8,7.6-1.6,11.4-2.5c3.3,1.8,5.9,4.1,8,6.5C666.4,770.6,668.2,772.6,669.8,774.6z M674.1,776.8c-2.3,2.3,1.9,6.3,6.3,5.3
				C682.3,779.9,678.5,775.8,674.1,776.8z"/>
		</g>
	</g>
	<g class="st6">
		<path class="st11" d="M470.6,586.2c12.4-20.5,16.3,10.4,26.4,19.8c-11.7,1.8-17.3-24.1-26-12.9c-0.3,7.6,6.8,16-3.1,17.7
			C467.8,602.3,465.1,592.2,470.6,586.2z"/>
		<path class="st11" d="M452.4,621.2c2.3-2.8,5.1-5,8.5-6.6c1,6.1-5.9,8.4-7.3,13.6c8.4,16-14.9,25.5-3.2,40.9
			c3.7,7.1-5.4,9.2-8.3,12.8C429.5,659.6,444.7,638,452.4,621.2z"/>
		<path class="st11" d="M466.4,617.3c12-9.6,31.5-11.4,47.1-1.2c-7.3,3.3-16.2-3.4-24.1-2.1c-15.3-2.7-21,13.1-29.7,21.7
			C458.4,627.8,461.3,621.3,466.4,617.3z"/>
		<path class="st11" d="M473,635.7c6.1-3.6,18.2-10.7,24.3-14.2c5.7,5.9-4,8.5,2,13.7c6.3,0.7,15.3-3.4,19.2,5.8
			c-24.1,5.7-51,15.6-59.2,42.7c-2.6,7-6,13.9-13,16.2c-6.1-5.4,1.3-23.4,6.6-12.1c7.6-13.6,6.7-35.8,25.2-37.8
			c3.3-1.6,11-0.1,9.7-6.5c-1.1-8.1,2.6-25.3-12.8-5.1L473,635.7z"/>
		<path class="st11" d="M523.7,617.4c17.5,4.4,31.1,21.8,45.8,33.8c10.1,11,23.3-12.6,29.5,6c-12.5,6.7-17.6,21.4-26.2,32.4
			c-7.3-10.9,2.3-22.4-6.1-32.5c-12.9-10.1-28.1-10.2-41.9-15.4c4.7-1.5,9.7-2.3,14.2-4.4C534.1,630.3,527.6,624.9,523.7,617.4z"/>
	</g>
	<g class="st6">
		<g>
			<path class="st7" d="M689.9,841.5c5.1,3.8-1.1,7.9,0.2,11.4c-0.3,0.8,5.3-12.8,6.4-8.1c8.3-4.6,6.6-21.4,13.3-24
				c-0.2,1.4-0.6,4.1-0.8,5.5c1,0.8-0.7,4,0.4,4.8c-4.6,8.6-5.3,15.6-9,24.5c1.3,0.4,3.9,1.2,5.2,1.6c-5.8,3.3-0.4,10.6-8.4,12.8
				c-4.5,2.2-1.7,1-3.9,4.1c2,1.7,3.6-2.7,5.6-1c-1-0.1-2,2.2-3,2.1l-3.9-0.3c-2.3,2.6-3.7-4.5-6.7-2.3c0.1-3-0.5,3.7,0.1,0.8
				c-8.4-3.5-18-0.7-26.7-3.7c-1.1-2-2.1-4.1-3.2-6.2c2.2,1.8,4.4,3.6,6.6,5.4c1.9,0.8,5.6,2.5,7.5,3.4c1.1-0.4,3.3-1.2,4.4-1.6
				c-13.9-6.1-34.2-12.5-37.4-21.4c6.2,3.7,11.3,7.6,16.6,11.5c-0.6-1.1-1.9-3.2-2.6-4.2l3.3,0.1c-9.7-7-18.4-14.6-20-21.7
				c7.6,6,8.9,14.2,23.9,17.7c-1.8-5.7-10.5-11.5-14.8-17.3c5.6,3.8,10.8,7.7,16.4,11.5c2.9-3.8-4.2-9.2-7.7-13.9 M686.1,817.3
				 M655,832.9c5.2,1.8,12.6,7.8,13.6,10.4c4.7,13.2,3,4.7,8.5,14.1c1.1,2.3,3,5.3-0.9,6c-0.2,1-0.2,2.1-0.8,3
				c-1.7-0.3-5.1-1-6.8-1.4c4.6,3.1,9.3,6.4,12.1,10c5.9,1.8,10.3-4.4,13-1.2c1.2-2.7-1.5,3.1,2.3,1.4c3.4-1.1,1.6-4.1,1.9-6.4
				c-0.6-0.1-2-0.4-2.6-0.6c0.5-4.4-2.6-9.3-4.4-13.9c-2.9-2.6-0.8-4.5,0-6.6c-0.3-0.6-1-1.9-1.4-2.5"/>
			<path class="st7" d="M705.1,845.3"/>
		</g>
		<line class="st7" x1="637.7" y1="819.7" x2="634.8" y2="819.8"/>
		<path class="st7" d="M628.3,811.5"/>
		<path class="st7" d="M661.3,864.4c-2.4-4.7-4.8-9.4-7.1-14.1c2.6-2.1,5.2-4.2,7.9-6.3c0.3,1.2,0.8,4.8,1,6
			C661.9,855.1,661.6,859.2,661.3,864.4z"/>
		<path class="st7" d="M670.7,853.2c-0.9-12.2-1.2-24.7,3-36C679.7,829.6,674.5,842,670.7,853.2z"/>
		<path class="st7" d="M653.8,868.6c4-3.5,11.4,6.4,9.2,9.8C658.4,877.7,653.9,872.9,653.8,868.6z"/>
		<path class="st7" d="M676.2,863.5c-4.1-8.9,0.5-16.9,6-23.3C681.9,848.4,679.6,856.2,676.2,863.5z"/>
		<path class="st7" d="M667.9,875.4"/>
	</g>
	<text transform="matrix(0.9427 0 0 1 238.4412 1034.973)" class="st6"><tspan x="0" y="0" class="st12 st13">腾</tspan><tspan x="109.5" y="0" class="st14 st15">海</tspan><tspan x="212.4" y="0" class="st14 st2">教育</tspan></text>
	<text transform="matrix(1 0 0 1 238.4417 1101.0409)" class="st6 st4 st5">TengHai Education</text>
</g>
</svg>
